<?xml version="1.0" encoding="UTF-8"?>
<svg width="80px" height="29px" viewBox="0 0 80 29" version="1.1" xmlns="http://www.w3.org/2000/svg" xmlns:xlink="http://www.w3.org/1999/xlink">
    <!-- Generator: Sketch 48.2 (47327) - http://www.bohemiancoding.com/sketch -->
    <title>nike_logo</title>
    <desc>Created with Sketch.</desc>
    <defs></defs>
    <g id="02" stroke="none" stroke-width="1" fill="none" fill-rule="evenodd" transform="translate(-125.000000, -201.000000)">
        <g id="card" transform="translate(65.000000, 142.000000)" fill="#FFFFFF">
            <path d="M60.0004064,79.6377694 C59.9809128,81.7699389 60.6616055,83.6318335 62.2943194,85.0422159 C64.6440788,87.0716494 67.232502,87.7876411 69.8088077,87.7918559 C73.5736912,87.7971244 77.3122321,86.2782104 80.2394211,85.1070187 C85.169701,83.135539 139.663044,59.4714602 139.663044,59.4714602 C140.188842,59.2080343 140.089794,58.8798056 139.432283,59.0441833 C139.16675,59.1105667 80.1077081,75.1152729 80.1077081,75.1152729 C78.9676007,75.4355989 77.803258,75.6010303 76.6699997,75.6073526 C72.1311708,75.634222 68.0923243,73.1148164 68.1249891,67.80573 C68.1381604,65.7283531 68.7745975,63.2236993 70.2476753,60.2764899 C65.0423788,66.390079 60.0504573,73.9714775 60.0004064,79.6377694 Z" id="nike_logo"></path>
        </g>
    </g>
</svg>